<svg width="99" height="99" viewBox="0 0 99 99" fill="none" xmlns="http://www.w3.org/2000/svg">
<g filter="url(#filter0_d_711_235)">
<path d="M22 18L22 73L77 73L77 18L22 18ZM30.5468 40.7266L44.5385 40.7266C45.9699 40.7367 47.4744 41.2872 48.6273 42.348C49.6885 43.3958 50.3118 44.8984 50.3427 46.5073C50.3374 47.7428 50.102 49.1664 49.2818 50.3007C48.7087 51.0722 47.8113 51.6556 46.8212 51.9892V52.1201C47.8638 52.3809 48.8917 52.9379 49.6243 53.859C50.4956 54.9858 50.7936 56.5057 50.8193 58.0015C50.8089 59.5883 50.2596 61.2877 49.0301 62.5467C47.9372 63.6204 46.3681 64.235 44.7164 64.2688L30.5465 64.2688L30.5465 40.7268L30.5468 40.7266ZM55.0658 40.7737L65.4722 40.7737L65.4722 44.6341L55.0658 44.6341L55.0658 40.7737ZM60.0475 45.7889C61.4994 45.7889 62.7875 45.9775 63.9113 46.3562C65.045 46.7238 65.9991 47.2986 66.7748 48.0783C67.5504 48.847 68.1359 49.8271 68.5338 51.019C69.0584 52.5792 69.1579 54.5767 69.1481 56.4002L57.0495 56.4002C57.0495 57.6478 57.2975 58.6166 57.7947 59.3072C58.3019 59.9868 59.132 60.3244 60.2855 60.3244C61.3816 60.3193 62.6654 59.9678 63.0886 58.7365C63.198 58.4135 63.2531 58.0702 63.2531 57.7026L69.1479 57.7026C69.1356 59.5758 68.5325 61.4363 66.9525 62.8152C65.207 64.2351 62.7673 64.6401 60.4199 64.6851C58.9679 64.6851 57.6556 64.5021 56.4822 64.1345C55.3187 63.7557 54.3301 63.1754 53.5146 62.3956C52.6991 61.6159 52.0723 60.6358 51.6347 59.455C51.1972 58.263 50.9768 56.8549 50.9768 55.2286C50.9768 53.6468 51.1903 52.267 51.618 51.0861C52.0456 49.9054 52.6518 48.9253 53.4374 48.1455C54.233 47.3546 55.187 46.7629 56.3008 46.373C57.4246 45.9831 58.6748 45.7889 60.0472 45.7889L60.0475 45.7889V45.7889ZM37.2908 45.8896L37.2908 49.8978L41.9301 49.8978C42.3483 49.8946 42.7462 49.7031 43.048 49.364C43.3411 49.0072 43.4847 48.5371 43.4945 48.0448L43.4945 47.7091C43.4914 47.2648 43.3207 46.8058 43.0312 46.4234C42.7682 46.1127 42.3736 45.912 41.9302 45.8896L37.2908 45.8896V45.8896ZM60.2856 50.1327C59.2613 50.1327 58.4967 50.406 57.9895 50.9518C57.4922 51.4976 57.1892 52.2384 57.0797 53.1741L63.0148 53.1741C63.0148 52.2272 62.7771 51.4865 62.2997 50.9518C61.8225 50.406 61.1508 50.1327 60.2856 50.1327ZM37.2908 54.762L37.2908 58.7869L42.4202 58.7869C42.8336 58.7837 43.2295 58.5939 43.538 58.2699C43.8297 57.9147 43.9805 57.4424 43.9879 56.9506V56.5982C43.9852 56.1499 43.8399 55.6822 43.538 55.2957C43.2731 54.9832 42.863 54.7873 42.4202 54.762L37.2908 54.762Z" fill="white"/>
</g>
<defs>
<filter id="filter0_d_711_235" x="0" y="0" width="99" height="99" filterUnits="userSpaceOnUse" color-interpolation-filters="sRGB">
<feFlood flood-opacity="0" result="BackgroundImageFix"/>
<feColorMatrix in="SourceAlpha" type="matrix" values="0 0 0 0 0 0 0 0 0 0 0 0 0 0 0 0 0 0 127 0" result="hardAlpha"/>
<feOffset dy="4"/>
<feGaussianBlur stdDeviation="11"/>
<feComposite in2="hardAlpha" operator="out"/>
<feColorMatrix type="matrix" values="0 0 0 0 0 0 0 0 0 0 0 0 0 0 0 0 0 0 0.25 0"/>
<feBlend mode="normal" in2="BackgroundImageFix" result="effect1_dropShadow_711_235"/>
<feBlend mode="normal" in="SourceGraphic" in2="effect1_dropShadow_711_235" result="shape"/>
</filter>
</defs>
</svg>
