<svg width="100" height="99" viewBox="0 0 100 99" fill="none" xmlns="http://www.w3.org/2000/svg">
<g filter="url(#filter0_d_711_236)">
<path d="M49.0621 40.0001C46.2061 35.0158 43.1331 30.8289 42.6781 30.217C37.8621 32.4514 34.2571 36.8101 33.1441 42.0557C33.9141 42.0695 41.0121 42.1039 49.0621 40.0001ZM53.7171 41.4989C54.1161 42.3032 54.5011 43.1214 54.8581 43.9463C54.9841 44.2351 55.1101 44.5238 55.2291 44.8195C60.9551 44.1113 66.6531 45.2457 67.2201 45.3626C67.1851 41.3682 65.7291 37.7039 63.3351 34.8233C62.9641 35.3114 60.0801 38.9482 53.7171 41.4989ZM75.76 18.0002L22.943 18.0002C22.321 18.0002 22.4192 18 22 18C22 18.4116 22 18.4233 22 19.0292L22.0001 70.8C22.0001 71.4181 22 72.4854 22 73C23.0479 73 23.6304 73 24.2401 73L75.76 73C76.3596 73 77.4546 73 78 73C78 72.1711 78 71.4279 78 70.8L78 20.2002C78 19.6031 78 18.8495 78 18.0002C77.5808 18.0005 76.3911 18.0002 75.76 18.0002ZM50.0001 65.3C38.8841 65.3 29.8401 56.4176 29.8401 45.5001C29.8401 34.5826 38.8841 25.7002 50.0001 25.7002C61.1161 25.7002 70.1601 34.5826 70.1601 45.5001C70.1601 56.4176 61.1161 65.3 50.0001 65.3ZM56.2791 47.487C58.5331 53.5644 59.4501 58.5144 59.6251 59.5457C63.4891 56.9813 66.2401 52.9182 67.0031 48.2088C66.4151 48.0301 61.6761 46.6413 56.2791 47.487ZM51.2041 45.672C51.4281 45.6032 51.6521 45.5345 51.8831 45.4726C51.4491 44.5101 50.9801 43.5476 50.4901 42.6057C41.8941 45.1357 33.5431 45.0257 32.7941 45.012C32.7871 45.1838 32.7871 45.3557 32.7871 45.5276C32.7871 49.8726 34.4601 53.8394 37.2111 56.8369C37.5961 56.1769 42.3211 48.4907 51.2041 45.672ZM61.4171 32.8708C59.3443 31.0595 56.8555 29.7687 54.1636 29.109C51.4718 28.4492 48.6572 28.4402 45.9611 29.0826C46.4371 29.7083 49.5661 33.8883 52.3871 38.9826C58.5121 36.7276 61.1021 33.3039 61.4171 32.8708ZM52.9401 48.3051C43.2311 51.6257 39.7381 58.2463 39.4301 58.8651C42.3491 61.0994 46.0171 62.4332 50.0001 62.4332C52.3871 62.4332 54.6621 61.9588 56.7271 61.0925C56.4681 59.6076 55.4741 54.4376 53.0521 48.2638L52.9401 48.3051Z" fill="white"/>
</g>
<defs>
<filter id="filter0_d_711_236" x="0" y="0" width="100" height="99" filterUnits="userSpaceOnUse" color-interpolation-filters="sRGB">
<feFlood flood-opacity="0" result="BackgroundImageFix"/>
<feColorMatrix in="SourceAlpha" type="matrix" values="0 0 0 0 0 0 0 0 0 0 0 0 0 0 0 0 0 0 127 0" result="hardAlpha"/>
<feOffset dy="4"/>
<feGaussianBlur stdDeviation="11"/>
<feComposite in2="hardAlpha" operator="out"/>
<feColorMatrix type="matrix" values="0 0 0 0 0 0 0 0 0 0 0 0 0 0 0 0 0 0 0.25 0"/>
<feBlend mode="normal" in2="BackgroundImageFix" result="effect1_dropShadow_711_236"/>
<feBlend mode="normal" in="SourceGraphic" in2="effect1_dropShadow_711_236" result="shape"/>
</filter>
</defs>
</svg>
