<svg width="99" height="101" viewBox="0 0 99 101" fill="none" xmlns="http://www.w3.org/2000/svg">
<g filter="url(#filter0_d_711_239)">
<path fill-rule="evenodd" clip-rule="evenodd" d="M22 74.5125L22 18L76.9725 18L76.9725 74.5125L22 74.5125ZM71.975 23.1375L26.9975 23.1375L26.9975 69.375H26.9978V69.3751L71.9754 69.3751L71.9754 23.1376H71.975V23.1375ZM71.975 23.1376L26.9978 23.1376L26.9978 69.375L71.975 69.375L71.975 23.1376ZM31.995 45.9608C31.995 35.917 39.4663 28.275 49.2564 28.275C59.049 28.275 66.9775 35.917 66.9775 45.9608C66.9775 54.0087 62.1999 60.8956 55.1659 63.3205C54.2739 63.4823 53.9565 62.9146 53.9565 62.4471C53.9565 62.2525 53.9587 61.7922 53.9616 61.1748C53.9675 59.9182 53.9765 58.011 53.9765 56.3694C53.9765 54.6586 53.4193 53.5798 52.7646 53.0095C56.7077 52.5625 60.8706 52.0103 60.8706 45.0027C60.8706 43.0068 60.1759 42.0075 59.0465 40.7232C59.2239 40.2557 59.8411 38.3188 58.8691 35.7912C57.3848 35.3237 53.9965 37.7486 53.9965 37.7486C52.5476 37.3475 51.0542 37.1411 49.5537 37.1346C48.0558 37.1403 46.5649 37.3458 45.1185 37.746C45.1185 37.746 41.7301 35.3211 40.2434 35.7912C39.2714 38.2983 39.8836 40.2531 40.0635 40.7232C38.934 42.0075 38.3968 43.0042 38.3968 45.0027C38.3968 51.9717 42.3823 52.5625 46.3278 53.0095C45.8131 53.4744 45.3533 54.2913 45.1959 55.4524C44.1839 55.9199 41.5927 56.7393 40.0485 53.9265C39.0765 52.1952 37.3298 52.0514 37.3298 52.0514C35.6057 52.0308 37.2124 53.1688 37.2124 53.1688C38.3618 53.7185 39.1689 55.8197 39.1689 55.8197C40.1984 59.0795 45.1584 57.98 45.1584 57.98C45.1584 58.972 45.1658 60.3676 45.171 61.3472C45.1738 61.877 45.1759 62.2851 45.1759 62.4419C45.1759 62.9095 44.8586 63.4849 43.9465 63.3205C36.9101 60.8981 31.995 54.0087 31.995 45.9608ZM38.0995 52.709C38.1394 52.6268 38.2594 52.6011 38.3993 52.6422H38.3968C38.5367 52.7244 38.5942 52.8477 38.5542 52.9299C38.5142 53.0326 38.3768 53.0506 38.2569 52.9915C38.1169 52.9067 38.0595 52.7911 38.0995 52.709ZM38.8516 53.2946C38.9016 53.2433 38.9665 53.2355 39.0315 53.251C39.1044 53.2697 39.172 53.3058 39.2289 53.3563C39.3488 53.5001 39.3663 53.6594 39.2664 53.7416C39.1664 53.8443 39.0115 53.7827 38.8916 53.6799C38.7716 53.5387 38.7516 53.3768 38.8516 53.2946ZM39.6663 54.1787C39.7027 54.1751 39.7395 54.1803 39.7736 54.1937C39.853 54.2251 39.9199 54.283 39.9635 54.3581C40.081 54.5173 40.081 54.7229 39.9635 54.805C39.8636 54.8872 39.6837 54.8076 39.5637 54.6458C39.4438 54.484 39.4438 54.2964 39.5637 54.2142C39.5948 54.1944 39.6299 54.1823 39.6663 54.1787ZM40.4714 55.2238C40.5078 55.2094 40.5472 55.205 40.5857 55.2109H40.5832C40.6795 55.228 40.7675 55.2777 40.8331 55.3522C40.973 55.496 41.0305 55.7221 40.9305 55.8043C40.8306 55.9276 40.6357 55.9019 40.4783 55.7375C40.3208 55.5937 40.2809 55.3959 40.3783 55.2931C40.403 55.2621 40.4351 55.2382 40.4714 55.2238ZM41.5128 56.1845C41.5527 56.0406 41.7701 55.9841 41.945 56.0252C42.1624 56.0869 42.3049 56.2487 42.2449 56.39C42.2049 56.5312 41.985 56.6186 41.8101 56.5364C41.6127 56.4953 41.4728 56.3283 41.5128 56.1845ZM44.3039 56.4362C44.2839 56.2744 44.4238 56.1305 44.6187 56.0894H44.6212C44.8211 56.0663 45.016 56.1459 45.036 56.2898C45.076 56.4362 44.936 56.5749 44.7187 56.616C44.5212 56.6571 44.3238 56.5775 44.3039 56.4362ZM42.937 56.5158C42.937 56.372 43.092 56.2513 43.3119 56.2513C43.5118 56.2307 43.7067 56.3514 43.7067 56.5158C43.7067 56.6597 43.5517 56.783 43.3318 56.783C43.0945 56.8035 42.937 56.6777 42.937 56.5158Z" fill="white"/>
</g>
<defs>
<filter id="filter0_d_711_239" x="0" y="0" width="98.9727" height="100.513" filterUnits="userSpaceOnUse" color-interpolation-filters="sRGB">
<feFlood flood-opacity="0" result="BackgroundImageFix"/>
<feColorMatrix in="SourceAlpha" type="matrix" values="0 0 0 0 0 0 0 0 0 0 0 0 0 0 0 0 0 0 127 0" result="hardAlpha"/>
<feOffset dy="4"/>
<feGaussianBlur stdDeviation="11"/>
<feComposite in2="hardAlpha" operator="out"/>
<feColorMatrix type="matrix" values="0 0 0 0 0 0 0 0 0 0 0 0 0 0 0 0 0 0 0.25 0"/>
<feBlend mode="normal" in2="BackgroundImageFix" result="effect1_dropShadow_711_239"/>
<feBlend mode="normal" in="SourceGraphic" in2="effect1_dropShadow_711_239" result="shape"/>
</filter>
</defs>
</svg>
