<svg width="98" height="99" viewBox="0 0 98 99" fill="none" xmlns="http://www.w3.org/2000/svg">
<g filter="url(#filter0_d_711_238)">
<path d="M49 38.9515C47.7285 38.952 46.4857 39.3365 45.4287 40.0563C44.3717 40.7762 43.548 41.7991 43.0617 42.9957C42.5755 44.1923 42.4485 45.5089 42.6969 46.779C42.9452 48.0491 43.5577 49.2157 44.457 50.1313C45.3563 51.0468 46.5019 51.6704 47.749 51.9228C48.9961 52.1753 50.2887 52.0455 51.4634 51.5498C52.6381 51.0541 53.642 50.2146 54.3484 49.1378C55.0548 48.061 55.4318 46.795 55.4318 45.4999C55.4305 43.7632 54.7524 42.0979 53.5464 40.8701C52.3404 39.6422 50.7052 38.9522 49 38.9515ZM64.032 33.9181C63.7047 33.0732 63.2104 32.3059 62.5799 31.6637C61.9494 31.0215 61.196 30.5181 60.3665 30.1847C57.8353 29.167 51.8085 29.3953 49 29.3953C46.1915 29.3953 40.1708 29.1584 37.6323 30.1847C36.8028 30.5181 36.0494 31.0215 35.4189 31.6637C34.7883 32.3059 34.2941 33.0732 33.9668 33.9181C32.9687 36.4962 33.1917 42.6407 33.1917 45.4987C33.1917 48.3567 32.9687 54.494 33.9716 57.0807C34.2989 57.9255 34.7932 58.6929 35.4237 59.3351C36.0542 59.9773 36.8076 60.4807 37.6371 60.8141C40.1683 61.8318 46.1951 61.6035 49.0048 61.6035C51.8145 61.6035 57.8329 61.8404 60.3713 60.8141C61.2008 60.4807 61.9542 59.9773 62.5847 59.3351C63.2153 58.6929 63.7095 57.9255 64.0368 57.0807C65.0433 54.5026 64.8119 48.358 64.8119 45.4999C64.8119 42.6419 65.0433 36.506 64.0368 33.9193L64.032 33.9181ZM49 55.567C47.0451 55.567 45.1342 54.9766 43.5088 53.8704C41.8834 52.7642 40.6165 51.1919 39.8684 49.3524C39.1203 47.5129 38.9246 45.4888 39.306 43.536C39.6874 41.5832 40.6287 39.7894 42.011 38.3815C43.3933 36.9737 45.1544 36.0149 47.0717 35.6264C48.989 35.238 50.9764 35.4374 52.7824 36.1993C54.5885 36.9613 56.1321 38.2516 57.2182 39.9071C58.3042 41.5626 58.8839 43.5089 58.8839 45.4999C58.8855 46.8224 58.6309 48.1322 58.1348 49.3543C57.6386 50.5764 56.9107 51.6869 55.9925 52.6221C55.0744 53.5572 53.9842 54.2986 52.7843 54.804C51.5844 55.3093 50.2984 55.5686 49 55.567ZM59.2913 37.3605C58.835 37.3607 58.3888 37.2231 58.0093 36.965C57.6297 36.707 57.3338 36.3401 57.159 35.9108C56.9842 35.4814 56.9384 35.0089 57.0273 34.553C57.1161 34.0971 57.3358 33.6784 57.6584 33.3496C57.981 33.0209 58.3921 32.7969 58.8396 32.7062C59.2872 32.6154 59.7511 32.6619 60.1727 32.8397C60.5944 33.0175 60.9547 33.3187 61.2083 33.7051C61.4619 34.0916 61.5972 34.5459 61.5972 35.0107C61.5985 35.3193 61.5399 35.6252 61.4248 35.9108C61.3098 36.1963 61.1405 36.4559 60.9267 36.6747C60.7129 36.8934 60.4589 37.0671 60.1791 37.1856C59.8992 37.3041 59.5992 37.3652 59.2962 37.3654L59.2913 37.3605ZM70.2143 18L27.7857 18C26.2512 18 24.3639 18 22 18C22 19.394 22 22.33 22 23.8929L22 67.1071C22 68.67 22.0001 71.3525 22 73C24.6128 73 26.2512 73 27.7857 73L70.2143 73C71.7488 73 74.6313 73 76 73C76 71.2258 76 68.67 76 67.1071L76 23.8929C76 22.33 76 19.5208 76 18C74.5069 18 71.7488 18 70.2143 18ZM68.1507 53.6027C67.9952 56.7492 67.2901 59.5373 65.0349 61.8281C62.7796 64.119 60.0447 64.8519 56.959 65.0017C53.7756 65.1846 44.2316 65.1846 41.0483 65.0017C37.9589 64.8433 35.2312 64.1239 32.9724 61.8281C30.7135 59.5324 30.0036 56.7431 29.8565 53.6027C29.6769 50.3592 29.6769 40.6371 29.8565 37.3973C30.012 34.2508 30.7087 31.4627 32.9724 29.1719C35.236 26.881 37.971 26.1567 41.0483 26.0069C44.2316 25.824 53.7756 25.824 56.959 26.0069C60.0483 26.1653 62.7845 26.8847 65.0349 29.1805C67.2853 31.4762 68.0037 34.2655 68.1507 37.412C68.3303 40.6433 68.3303 50.3567 68.1507 53.6027Z" fill="white"/>
</g>
<defs>
<filter id="filter0_d_711_238" x="0" y="0" width="98" height="99" filterUnits="userSpaceOnUse" color-interpolation-filters="sRGB">
<feFlood flood-opacity="0" result="BackgroundImageFix"/>
<feColorMatrix in="SourceAlpha" type="matrix" values="0 0 0 0 0 0 0 0 0 0 0 0 0 0 0 0 0 0 127 0" result="hardAlpha"/>
<feOffset dy="4"/>
<feGaussianBlur stdDeviation="11"/>
<feComposite in2="hardAlpha" operator="out"/>
<feColorMatrix type="matrix" values="0 0 0 0 0 0 0 0 0 0 0 0 0 0 0 0 0 0 0.25 0"/>
<feBlend mode="normal" in2="BackgroundImageFix" result="effect1_dropShadow_711_238"/>
<feBlend mode="normal" in="SourceGraphic" in2="effect1_dropShadow_711_238" result="shape"/>
</filter>
</defs>
</svg>
