<svg width="39" height="38" viewBox="0 0 39 38" fill="none" xmlns="http://www.w3.org/2000/svg">
<path fill-rule="evenodd" clip-rule="evenodd" d="M37.5368 0.465116C37.6843 0.612179 37.8012 0.786884 37.8811 0.979224C37.9609 1.17156 38.0019 1.37776 38.0019 1.586C38.0019 1.79425 37.9609 2.00044 37.8811 2.19278C37.8012 2.38512 37.6843 2.55983 37.5368 2.70689L2.70704 37.5367C2.40976 37.834 2.00656 38.001 1.58615 38.001C1.16574 38.001 0.76254 37.834 0.465262 37.5367C0.167985 37.2394 0.000976563 36.8362 0.000976562 36.4158C0.000976563 35.9954 0.167985 35.5922 0.465262 35.2949L35.2951 0.465116C35.4421 0.317681 35.6168 0.200708 35.8092 0.120895C36.0015 0.0410829 36.2077 0 36.4159 0C36.6242 0 36.8304 0.0410829 37.0227 0.120895C37.2151 0.200708 37.3898 0.317681 37.5368 0.465116Z" fill="white"/>
<path fill-rule="evenodd" clip-rule="evenodd" d="M0.465116 0.465116C0.317681 0.612179 0.200708 0.786884 0.120895 0.979224C0.0410829 1.17156 0 1.37776 0 1.586C0 1.79425 0.0410829 2.00044 0.120895 2.19278C0.200708 2.38512 0.317681 2.55983 0.465116 2.70689L35.2949 37.5367C35.5922 37.834 35.9954 38.001 36.4158 38.001C36.8362 38.001 37.2394 37.834 37.5367 37.5367C37.834 37.2394 38.001 36.8362 38.001 36.4158C38.001 35.9954 37.834 35.5922 37.5367 35.2949L2.70689 0.465116C2.55983 0.317681 2.38512 0.200708 2.19278 0.120895C2.00044 0.0410829 1.79425 0 1.586 0C1.37776 0 1.17156 0.0410829 0.979224 0.120895C0.786884 0.200708 0.612179 0.317681 0.465116 0.465116Z" fill="white"/>
</svg>
