<svg width="27" height="27" viewBox="0 0 27 27" fill="none" xmlns="http://www.w3.org/2000/svg">
<path d="M2.71897 0H24.281C25.0398 0 25.6827 0.264085 26.2096 0.792254C26.7365 1.32042 27 1.94366 27 2.66197V24.338C27 25.0563 26.7365 25.6796 26.2096 26.2077C25.6827 26.7359 25.0398 27 24.281 27H17.3255C17.0304 26.9577 16.8829 26.5141 16.8829 25.669V21.993C16.8829 20.8521 16.5667 20.007 15.9344 19.4577C17.7892 19.2465 19.2752 18.6761 20.3923 17.7465C21.5094 16.8169 22.0679 15.169 22.0679 12.8028C22.0679 11.4084 21.6042 10.2042 20.6768 9.19014C21.1405 8.09155 21.0984 6.88732 20.5504 5.57746C19.7916 5.32394 18.5691 5.78873 16.8829 6.97183C15.7869 6.67606 14.6487 6.52817 13.4684 6.52817C12.2881 6.52817 11.171 6.67606 10.1171 6.97183C9.35831 6.46479 8.6733 6.09507 8.06206 5.86268C7.45082 5.63028 7.01874 5.53521 6.76581 5.57746H6.38642C5.88056 6.88732 5.83841 8.09155 6.25995 9.19014C5.33255 10.2042 4.86885 11.4084 4.86885 12.8028C4.86885 15.1268 5.43794 16.7641 6.57611 17.7148C7.71429 18.6655 9.1897 19.2465 11.0023 19.4577C10.5386 19.8803 10.2646 20.493 10.1803 21.2958C8.40984 22.0563 7.10304 21.6761 6.25995 20.1549C5.7541 19.3099 5.05855 18.8451 4.1733 18.7606C4.08899 18.7606 3.99415 18.7711 3.88876 18.7923C3.78337 18.8134 3.66745 18.8873 3.54098 19.0141C3.41452 19.1408 3.58314 19.331 4.04684 19.5845C4.67916 19.8803 5.18501 20.5352 5.5644 21.5493C5.60656 21.6338 5.64871 21.7289 5.69087 21.8345C5.73302 21.9401 5.87002 22.1408 6.10187 22.4366C6.33372 22.7324 6.60773 22.9542 6.92389 23.1021C7.24005 23.25 7.67213 23.3873 8.22014 23.5141C8.76815 23.6408 9.40047 23.5986 10.1171 23.3873V25.669C10.1171 26.5141 9.94848 26.9577 9.61124 27H2.71897C1.96019 27 1.31733 26.7359 0.790398 26.2077C0.263466 25.6796 0 25.0563 0 24.338V2.66197C0 1.94366 0.263466 1.32042 0.790398 0.792254C1.31733 0.264085 1.96019 0 2.71897 0Z" fill="white"/>
</svg>
