<svg width="44" height="74" viewBox="0 0 44 74" fill="none" xmlns="http://www.w3.org/2000/svg">
<path d="M36.6944 46.9596L36.6943 46.9597L24.759 60.645V4.49382C24.759 3.60794 24.4532 2.73544 23.8753 2.07303C23.2936 1.40627 22.473 1 21.5833 1C20.6936 1 19.8731 1.40628 19.2914 2.07303C18.7135 2.73544 18.4077 3.60794 18.4077 4.49382V60.645L6.47236 46.9597L6.47225 46.9596C5.89006 46.2922 5.0688 45.8856 4.17837 45.8856C3.28794 45.8856 2.46668 46.2922 1.88448 46.9596C1.30608 47.6226 1 48.4959 1 49.3826C1 50.2693 1.30608 51.1426 1.88448 51.8056L19.2886 71.7552C19.5761 72.0856 19.9252 72.3563 20.32 72.544C20.7153 72.7321 21.1451 72.8314 21.5833 72.8314C22.0216 72.8314 22.4513 72.7321 22.8467 72.544C23.2415 72.3563 23.5905 72.0856 23.878 71.7552L41.2822 51.8056C41.8606 51.1426 42.1667 50.2693 42.1667 49.3826C42.1667 48.4959 41.8606 47.6226 41.2822 46.9596C40.7 46.2922 39.8787 45.8856 38.9883 45.8856C38.0979 45.8856 37.2766 46.2922 36.6944 46.9596Z" fill="white" stroke="white" stroke-width="2"/>
</svg>
