<svg width="65" height="108" viewBox="0 0 65 108" fill="none" xmlns="http://www.w3.org/2000/svg">
<rect width="65" height="107.139" fill="white"/>
<path fill-rule="evenodd" clip-rule="evenodd" d="M32.5833 19C33.1603 19 33.7137 19.2627 34.1217 19.7304C34.5297 20.1981 34.759 20.8324 34.759 21.4938V80.3131L48.448 64.617C48.8565 64.1487 49.4106 63.8856 49.9883 63.8856C50.566 63.8856 51.1201 64.1487 51.5286 64.617C51.9372 65.0852 52.1667 65.7203 52.1667 66.3826C52.1667 67.0448 51.9372 67.6799 51.5286 68.1482L34.1237 88.0988C33.9216 88.331 33.6815 88.5153 33.4172 88.641C33.1529 88.7667 32.8695 88.8314 32.5833 88.8314C32.2972 88.8314 32.0138 88.7667 31.7495 88.641C31.4852 88.5153 31.2451 88.331 31.043 88.0988L13.638 68.1482C13.2295 67.6799 13 67.0448 13 66.3826C13 65.7203 13.2295 65.0852 13.638 64.617C14.0466 64.1487 14.6006 63.8856 15.1784 63.8856C15.7561 63.8856 16.3102 64.1487 16.7187 64.617L30.4077 80.3131V21.4938C30.4077 20.8324 30.6369 20.1981 31.0449 19.7304C31.4529 19.2627 32.0063 19 32.5833 19V19Z" fill="black"/>
</svg>
