<svg width="40" height="70" viewBox="0 0 40 70" fill="none" xmlns="http://www.w3.org/2000/svg">
<path fill-rule="evenodd" clip-rule="evenodd" d="M19.5833 0C20.1603 0 20.7137 0.262741 21.1217 0.730423C21.5297 1.1981 21.759 1.83242 21.759 2.49382V61.3131L35.448 45.617C35.8565 45.1487 36.4106 44.8856 36.9883 44.8856C37.566 44.8856 38.1201 45.1487 38.5286 45.617C38.9372 46.0852 39.1667 46.7203 39.1667 47.3826C39.1667 48.0448 38.9372 48.6799 38.5286 49.1482L21.1237 69.0988C20.9216 69.331 20.6815 69.5153 20.4172 69.641C20.1529 69.7667 19.8695 69.8314 19.5833 69.8314C19.2972 69.8314 19.0138 69.7667 18.7495 69.641C18.4852 69.5153 18.2451 69.331 18.043 69.0988L0.638029 49.1482C0.229506 48.6799 -1.3612e-08 48.0448 0 47.3826C1.3612e-08 46.7203 0.229506 46.0852 0.638029 45.617C1.04655 45.1487 1.60063 44.8856 2.17837 44.8856C2.75611 44.8856 3.31019 45.1487 3.71871 45.617L17.4077 61.3131V2.49382C17.4077 1.83242 17.6369 1.1981 18.0449 0.730423C18.4529 0.262741 19.0063 0 19.5833 0V0Z" fill="white"/>
</svg>
